<svg width="20" height="20" viewBox="0 0 20 20" fill="none" xmlns="http://www.w3.org/2000/svg">
<path fill-rule="evenodd" clip-rule="evenodd" d="M9.50129 1.5C10.7424 1.49676 11.9667 1.78673 13.0746 2.3463L13.0765 2.34725L13.0765 2.34725C15.7864 3.70164 17.4988 6.47063 17.5 9.50019L17.5 9.5013C17.5032 10.7424 17.2133 11.9667 16.6537 13.0746C16.5936 13.1936 16.5835 13.3316 16.6256 13.4581L18.2094 18.2094L13.4581 16.6257C13.3316 16.5835 13.1936 16.5936 13.0746 16.6537C11.9667 17.2133 10.7424 17.5032 9.50129 17.5L9.50018 17.5C6.47062 17.4988 3.70163 15.7864 2.34724 13.0765L2.34628 13.0746C1.78672 11.9667 1.49675 10.7424 1.49998 9.5013L0.999987 9.5H1.49999V9.01399C1.73025 4.96351 4.96349 1.73026 9.01398 1.5H9.49999L9.50129 1.5ZM0.499989 9.49869C0.499989 9.49894 0.499987 9.49919 0.499987 9.49944C0.496458 10.8974 0.823036 12.2764 1.45314 13.5243C2.9769 16.5724 6.09151 18.4985 9.49924 18.5C10.8274 18.5034 12.1384 18.2088 13.3361 17.6391L18.8419 19.4743C19.0215 19.5342 19.2196 19.4875 19.3535 19.3536C19.4875 19.2196 19.5342 19.0216 19.4743 18.8419L17.6391 13.3362C18.2088 12.1384 18.5034 10.8274 18.5 9.49925C18.5 9.49907 18.5 9.49888 18.5 9.49869L18 9.5L18.5 9.4998C18.5 9.49962 18.5 9.49944 18.5 9.49925C18.4985 6.09157 16.5725 2.977 13.5245 1.45322C13.5248 1.45338 13.5251 1.45354 13.5254 1.4537L13.3 1.9L13.5235 1.45275C13.5238 1.4529 13.5241 1.45306 13.5245 1.45322C12.2765 0.823059 10.8974 0.496457 9.49934 0.499998H8.99999C8.9908 0.499998 8.98162 0.500251 8.97244 0.500757C4.40216 0.752896 0.752884 4.40218 0.500746 8.97246C0.50024 8.98163 0.499987 8.99081 0.499987 9L0.499989 9.49869ZM9.49924 18.5C9.49942 18.5 9.49961 18.5 9.49979 18.5L9.49999 18L9.49868 18.5C9.49887 18.5 9.49905 18.5 9.49924 18.5Z" fill="#BDBDBD"/>
</svg>
