<svg width="40" height="40" viewBox="0 0 40 40" fill="none" xmlns="http://www.w3.org/2000/svg">
<rect width="24" height="24" transform="translate(8 8)" fill="white"/>
<path fill-rule="evenodd" clip-rule="evenodd" d="M10.5 11C10.5 10.7239 10.7239 10.5 11 10.5H18C18.2761 10.5 18.5 10.7239 18.5 11V18C18.5 18.2761 18.2761 18.5 18 18.5H11C10.7239 18.5 10.5 18.2761 10.5 18V11ZM11.5 11.5V17.5H17.5V11.5H11.5Z" fill="#212121" fill-opacity="0.8"/>
<path fill-rule="evenodd" clip-rule="evenodd" d="M21.5 11C21.5 10.7239 21.7239 10.5 22 10.5H29C29.2761 10.5 29.5 10.7239 29.5 11V18C29.5 18.2761 29.2761 18.5 29 18.5H22C21.7239 18.5 21.5 18.2761 21.5 18V11ZM22.5 11.5V17.5H28.5V11.5H22.5Z" fill="#212121" fill-opacity="0.8"/>
<path fill-rule="evenodd" clip-rule="evenodd" d="M21.5 22C21.5 21.7239 21.7239 21.5 22 21.5H29C29.2761 21.5 29.5 21.7239 29.5 22V29C29.5 29.2761 29.2761 29.5 29 29.5H22C21.7239 29.5 21.5 29.2761 21.5 29V22ZM22.5 22.5V28.5H28.5V22.5H22.5Z" fill="#212121" fill-opacity="0.8"/>
<path fill-rule="evenodd" clip-rule="evenodd" d="M10.5 22C10.5 21.7239 10.7239 21.5 11 21.5H18C18.2761 21.5 18.5 21.7239 18.5 22V29C18.5 29.2761 18.2761 29.5 18 29.5H11C10.7239 29.5 10.5 29.2761 10.5 29V22ZM11.5 22.5V28.5H17.5V22.5H11.5Z" fill="#212121" fill-opacity="0.8"/>
</svg>
