<svg width="18" height="20" viewBox="0 0 18 20" fill="none" xmlns="http://www.w3.org/2000/svg">
<path fill-rule="evenodd" clip-rule="evenodd" d="M9 1.5C4.81804 1.5 1.5 4.61117 1.5 8.36364C1.5 11.0103 3.36425 13.5431 5.34842 15.4709C6.32745 16.4221 7.30848 17.1999 8.04558 17.7402C8.4137 18.01 8.71986 18.2198 8.93305 18.3615C8.95651 18.3771 8.97884 18.3918 9 18.4058C9.02115 18.3918 9.04349 18.3771 9.06695 18.3615C9.28014 18.2198 9.5863 18.01 9.95442 17.7402C10.6915 17.1999 11.6726 16.4221 12.6516 15.4709C14.6358 13.5431 16.5 11.0103 16.5 8.36364C16.5 4.61117 13.182 1.5 9 1.5ZM9 19C8.73849 19.4262 8.73835 19.4261 8.73818 19.426L8.73769 19.4257L8.73616 19.4247L8.73094 19.4215L8.712 19.4097C8.69565 19.3995 8.67195 19.3846 8.64138 19.3651C8.58025 19.3261 8.49163 19.2688 8.37945 19.1943C8.15514 19.0452 7.8363 18.8266 7.45442 18.5467C6.69152 17.9876 5.67255 17.1801 4.65158 16.1882C2.63575 14.2296 0.5 11.4442 0.5 8.36364C0.5 3.98246 4.34541 0.5 9 0.5C13.6546 0.5 17.5 3.98246 17.5 8.36364C17.5 11.4442 15.3642 14.2296 13.3484 16.1882C12.3274 17.1801 11.3085 17.9876 10.5456 18.5467C10.1637 18.8266 9.84486 19.0452 9.62055 19.1943C9.50837 19.2688 9.41975 19.3261 9.35862 19.3651C9.32805 19.3846 9.30435 19.3995 9.288 19.4097L9.26906 19.4215L9.26384 19.4247L9.26231 19.4257L9.26182 19.426C9.26165 19.4261 9.26151 19.4262 9 19ZM9 19L9.26151 19.4262C9.10107 19.5246 8.89893 19.5246 8.73849 19.4262L9 19Z" fill="#BDBDBD"/>
<path fill-rule="evenodd" clip-rule="evenodd" d="M5.5 9C5.5 7.067 7.067 5.5 9 5.5C10.933 5.5 12.5 7.067 12.5 9C12.5 10.933 10.933 12.5 9 12.5C7.067 12.5 5.5 10.933 5.5 9ZM9 6.5C7.61929 6.5 6.5 7.61929 6.5 9C6.5 10.3807 7.61929 11.5 9 11.5C10.3807 11.5 11.5 10.3807 11.5 9C11.5 7.61929 10.3807 6.5 9 6.5Z" fill="#BDBDBD"/>
</svg>
