<svg width="20" height="22" viewBox="0 0 20 22" fill="none" xmlns="http://www.w3.org/2000/svg">
<path fill-rule="evenodd" clip-rule="evenodd" d="M0.5 5C0.5 4.72386 0.723858 4.5 1 4.5H19C19.2761 4.5 19.5 4.72386 19.5 5C19.5 5.27614 19.2761 5.5 19 5.5H1C0.723858 5.5 0.5 5.27614 0.5 5Z" fill="#BDBDBD"/>
<path fill-rule="evenodd" clip-rule="evenodd" d="M8 1.5C7.17157 1.5 6.5 2.17157 6.5 3V5C6.5 5.27614 6.27614 5.5 6 5.5C5.72386 5.5 5.5 5.27614 5.5 5V3C5.5 1.61929 6.61929 0.5 8 0.5H12C13.3807 0.5 14.5 1.61929 14.5 3V5C14.5 5.27614 14.2761 5.5 14 5.5C13.7239 5.5 13.5 5.27614 13.5 5V3C13.5 2.17157 12.8284 1.5 12 1.5H8ZM3 4.5C3.27614 4.5 3.5 4.72386 3.5 5V19C3.5 19.8284 4.17157 20.5 5 20.5H15C15.8284 20.5 16.5 19.8284 16.5 19V5C16.5 4.72386 16.7239 4.5 17 4.5C17.2761 4.5 17.5 4.72386 17.5 5V19C17.5 20.3807 16.3807 21.5 15 21.5H5C3.61929 21.5 2.5 20.3807 2.5 19V5C2.5 4.72386 2.72386 4.5 3 4.5Z" fill="#BDBDBD"/>
<path fill-rule="evenodd" clip-rule="evenodd" d="M8 9.5C8.27614 9.5 8.5 9.72386 8.5 10V16C8.5 16.2761 8.27614 16.5 8 16.5C7.72386 16.5 7.5 16.2761 7.5 16V10C7.5 9.72386 7.72386 9.5 8 9.5Z" fill="#BDBDBD"/>
<path fill-rule="evenodd" clip-rule="evenodd" d="M12 9.5C12.2761 9.5 12.5 9.72386 12.5 10V16C12.5 16.2761 12.2761 16.5 12 16.5C11.7239 16.5 11.5 16.2761 11.5 16V10C11.5 9.72386 11.7239 9.5 12 9.5Z" fill="#BDBDBD"/>
</svg>
